# xmcd
#
# Track frame offsets:
#	187
#	7470
#	84130
#	157167
#	166157
#	264850
#	291647
#
# Disc length: 3988 seconds
#
# Revision: 1
# Processed by: cddbd v1.5.1PL0 Copyright (c) Steve Scherf et al.
# Submitted via: CDex 1.50Beta5
#
DISCID=5a0f9207
DTITLE=ワタル - 超ワタル3
DYEAR=1900
DGENRE=Anime
TTITLE0=三重野瞳/ひとつのハートで(Short Version)
TTITLE1=監督・脚本:井内秀治/3-1
TTITLE2=監督・脚本:井内秀治/3-2
TTITLE3=伊倉一恵/君に続く空(Short Version)
TTITLE4=監督・脚本:井内秀治/爆おも3アイドルは救世主
TTITLE5=監督・脚本:井内秀治/愛のはにわ3
TTITLE6=三重野瞳/BOYS BE AMBITIOUS
EXTD=
EXTT0=
EXTT1=
EXTT2=
EXTT3=
EXTT4=
EXTT5=
EXTT6=
PLAYORDER=
